<svg class="e-font-icon-svg e-eicon-bag-medium" viewBox="0 0 1000 1000" xmlns="http://www.w3.org/2000/svg">
  <path d="M323 292L323 207C329 95 391 33 501 33 610 33 673 95 677 209V292H750C796 292 833 329 833 375V875C833 921 796 958 750 958H250C204 958 167 921 167 875V375C167 329 204 292 250 292H323ZM385 292H615L615 210C611 130 577 95 501 95 425 95 390 130 385 209L385 292ZM323 354H250C238 354 229 363 229 375V875C229 887 238 896 250 896H750C762 896 771 887 771 875V375C771 363 762 354 750 354H677V454C677 471 663 485 646 485S615 471 615 454L615 354H385L385 454C385 471 371 485 354 485 337 485 323 471 323 454L323 354Z" style="fill: rgb(223,89,64);" class="cart-icon"></path>
</svg>
